HIERARCHY
ROOT joint_Root
{
	OFFSET 0.0 0.0 0.0
	CHANNELS 6 Xposition Yposition Zposition Zrotation Xrotation Yrotation 
	JOINT Hips
	{
		OFFSET -17.1583 93.1646 452.98
		CHANNELS 6 Xposition Yposition Zposition Zrotation Xrotation Yrotation 
		JOINT Spine
		{
			OFFSET 15.7357 0.0 0.0
			CHANNELS 6 Xposition Yposition Zposition Zrotation Xrotation Yrotation 
			JOINT Chest
			{
				OFFSET 8.98455 -0.406207 0.0
				CHANNELS 6 Xposition Yposition Zposition Zrotation Xrotation Yrotation 
				JOINT Neck
				{
					OFFSET 16.3773 0.0 0.0
					CHANNELS 6 Xposition Yposition Zposition Zrotation Xrotation Yrotation 
					JOINT Head
					{
						OFFSET 6.45672 0.0 0.0
						CHANNELS 6 Xposition Yposition Zposition Zrotation Xrotation Yrotation 
						End Site
						{
							OFFSET 0.0 0.0 0.0
						}
					}
				}
				JOINT Shoulder_L
				{
					OFFSET 12.9942 -0.242716 4.98039
					CHANNELS 6 Xposition Yposition Zposition Zrotation Xrotation Yrotation 
					JOINT UpperArm_L
					{
						OFFSET 5.34809 0.0 0.0
						CHANNELS 6 Xposition Yposition Zposition Zrotation Xrotation Yrotation 
						JOINT LowerArm_L
						{
							OFFSET 24.3286 1.87007e-05 0.0
							CHANNELS 6 Xposition Yposition Zposition Zrotation Xrotation Yrotation 
							JOINT Hand_L
							{
								OFFSET 22.2916 0.0 0.0
								CHANNELS 6 Xposition Yposition Zposition Zrotation Xrotation Yrotation 
								End Site
								{
									OFFSET 0.0 0.0 0.0
								}
							}
						}
					}
				}
				JOINT Shoulder_R
				{
					OFFSET 12.9945 -0.242716 -4.98039
					CHANNELS 6 Xposition Yposition Zposition Zrotation Xrotation Yrotation 
					JOINT UpperArm_R
					{
						OFFSET -5.34813 0.0 0.0
						CHANNELS 6 Xposition Yposition Zposition Zrotation Xrotation Yrotation 
						JOINT LowerArm_R
						{
							OFFSET -24.3289 0.000322201 0.0
							CHANNELS 6 Xposition Yposition Zposition Zrotation Xrotation Yrotation 
							JOINT Hand_R
							{
								OFFSET -22.2915 -0.000108084 0.0
								CHANNELS 6 Xposition Yposition Zposition Zrotation Xrotation Yrotation 
								End Site
								{
									OFFSET 0.0 0.0 0.0
								}
							}
						}
					}
				}
			}
		}
		JOINT UpperLeg_L
		{
			OFFSET -2.19248 -6.46944 0.0
			CHANNELS 6 Xposition Yposition Zposition Zrotation Xrotation Yrotation 
			JOINT LowerLeg_L
			{
				OFFSET 39.0811 0.0 -1.23785e-05
				CHANNELS 6 Xposition Yposition Zposition Zrotation Xrotation Yrotation 
				JOINT Foot_L
				{
					OFFSET 40.9854 0.0 -1.26872e-05
					CHANNELS 6 Xposition Yposition Zposition Zrotation Xrotation Yrotation 
					JOINT Toes_L
					{
						OFFSET 11.7543 0.0 0.0
						CHANNELS 6 Xposition Yposition Zposition Zrotation Xrotation Yrotation 
						End Site
						{
							OFFSET 0.0 0.0 0.0
						}
					}
				}
			}
		}
		JOINT UpperLeg_R
		{
			OFFSET -2.19251 6.46944 0.0
			CHANNELS 6 Xposition Yposition Zposition Zrotation Xrotation Yrotation 
			JOINT LowerLeg_R
			{
				OFFSET -39.0811 -0.00228153 -0.0401928
				CHANNELS 6 Xposition Yposition Zposition Zrotation Xrotation Yrotation 
				JOINT Foot_R
				{
					OFFSET -40.9854 0.0 0.0
					CHANNELS 6 Xposition Yposition Zposition Zrotation Xrotation Yrotation 
					JOINT Toes_R
					{
						OFFSET -11.7543 0.0 0.0
						CHANNELS 6 Xposition Yposition Zposition Zrotation Xrotation Yrotation 
						End Site
						{
							OFFSET 0.0 0.0 0.0
						}
					}
				}
			}
		}
	}
}
MOTION
Frames:	6
Frame Time:	0.0333333
0.000000 0.000000 0.000000 0.000000 0.000000 -0.000000 -217.980000 91.930200 230.468000 94.086600 83.656200 -5.944790 15.735700 0.000005 -0.000001 103.323000 86.007800 -102.908000 8.984550 -0.406207 -0.000000 -0.002642 1.811340 0.830949 16.377300 -0.000001 -0.000001 5.063440 2.087040 -1.021920 6.456720 -0.000001 -0.000000 4.043410 0.850333 -0.543007 12.994200 -0.242716 4.980390 -92.256400 5.663150 -68.233300 5.348090 -0.000007 -0.000001 -62.886400 -15.960000 14.811800 24.328600 0.000019 0.000005 14.546200 28.034000 -28.902200 22.291600 -0.000001 0.000005 54.844500 4.396460 18.279200 12.994500 -0.242716 -4.980390 89.007800 2.907610 -71.148300 -5.348130 -0.000001 -0.000004 -69.207400 8.547260 -18.220300 -24.328900 0.000322 -0.000009 -2.505030 -4.953250 -26.862500 -22.291500 -0.000108 -0.000004 44.462000 5.410380 -3.278140 -2.192480 -6.469440 -0.000000 -176.135000 8.317830 -30.923100 39.081100 -0.000007 -0.000012 0.027763 -0.037524 36.495300 40.985400 -0.000006 -0.000013 -4.435790 2.123710 -61.381200 11.754300 -0.000000 0.000003 0.002426 0.070706 -13.709100 -2.192510 6.469440 -0.000001 -177.164000 3.366100 -172.412000 -39.081100 -0.002282 -0.040193 -0.000752 0.017993 12.793700 -40.985400 0.000008 0.000006 2.101160 9.238390 -69.632900 -11.754300 -0.000006 -0.000006 0.000516 0.158472 -10.146200
0.000000 0.000000 0.000000 0.000000 0.000000 -0.000000 -215.456000 91.615500 230.316000 93.832700 83.104700 -6.113480 15.735700 0.000005 -0.000001 108.442000 86.127100 -107.995000 8.984550 -0.406207 -0.000000 -0.427024 2.417810 0.904007 16.377300 -0.000001 -0.000001 5.197740 2.409440 -1.200180 6.456720 -0.000001 -0.000000 4.129450 0.876301 -0.807520 12.994200 -0.242716 4.980390 -92.305400 5.650260 -67.760600 5.348090 -0.000007 -0.000001 -59.693800 -17.977400 16.432700 24.328600 0.000019 0.000005 13.686800 27.614800 -27.716500 22.291600 -0.000001 0.000005 55.184100 4.377610 18.578900 12.994500 -0.242716 -4.980390 88.964300 3.068690 -71.340300 -5.348130 -0.000001 -0.000004 -69.044100 8.815400 -19.575800 -24.328900 0.000322 -0.000009 -2.437580 -4.475040 -28.607100 -22.291500 -0.000108 -0.000004 44.779300 5.405290 -3.110250 -2.192480 -6.469440 -0.000000 -176.368000 6.680350 -29.451000 39.081100 -0.000007 -0.000012 0.019745 -0.042024 25.166600 40.985400 -0.000006 -0.000013 -5.542850 4.852750 -61.200200 11.754300 -0.000000 0.000003 0.002487 0.082537 -13.229500 -2.192510 6.469440 -0.000001 -177.719000 3.355750 -171.570000 -39.081100 -0.002282 -0.040193 -0.000933 0.017925 13.386300 -40.985400 0.000008 0.000006 2.094740 9.827340 -69.624000 -11.754300 -0.000006 -0.000006 0.002021 0.120197 -11.699100
0.000000 0.000000 0.000000 0.000000 0.000000 -0.000000 -212.548000 91.081600 230.288000 93.107100 83.039800 -5.652360 15.735700 0.000005 -0.000001 111.620000 86.221500 -111.136000 8.984550 -0.406207 -0.000000 -0.751894 2.747880 0.986153 16.377300 -0.000001 -0.000001 5.163910 2.602160 -1.307840 6.456720 -0.000001 -0.000000 3.976790 0.976388 -0.881625 12.994200 -0.242716 4.980390 -92.333400 5.639270 -67.477400 5.348090 -0.000007 -0.000001 -56.865500 -19.219400 17.612000 24.328600 0.000019 0.000005 12.663100 26.628000 -26.624700 22.291600 -0.000001 0.000005 55.301700 4.364980 18.778300 12.994500 -0.242716 -4.980390 88.972700 3.061070 -71.438600 -5.348130 -0.000001 -0.000004 -69.519900 8.922730 -20.040700 -24.328900 0.000322 -0.000009 -2.388090 -4.079370 -30.370800 -22.291500 -0.000108 -0.000004 44.754100 5.402820 -3.029540 -2.192480 -6.469440 -0.000000 -177.034000 4.565870 -27.653400 39.081100 -0.000007 -0.000012 0.011580 -0.041418 15.621300 40.985400 -0.000006 -0.000013 -7.050530 8.906930 -60.382900 11.754300 -0.000000 0.000003 0.002486 0.085391 -13.113700 -2.192510 6.469440 -0.000001 -178.086000 3.762910 -170.592000 -39.081100 -0.002282 -0.040193 -0.002811 0.023592 14.592500 -40.985400 0.000008 0.000006 2.671960 10.297800 -69.814800 -11.754300 -0.000006 -0.000006 0.002261 0.058484 -14.201000
0.000000 0.000000 0.000000 0.000000 0.000000 -0.000000 -209.266000 90.461700 230.281000 93.316900 83.296100 -6.312450 15.735700 0.000005 -0.000001 114.988000 86.441200 -114.522000 8.984550 -0.406207 -0.000000 -1.326940 2.969030 0.967223 16.377300 -0.000001 -0.000001 5.030680 2.645450 -1.258640 6.456720 -0.000001 -0.000000 3.911250 1.024210 -0.798816 12.994200 -0.242716 4.980390 -92.369100 5.692580 -67.359100 5.348090 -0.000007 -0.000001 -54.608400 -19.986000 18.312500 24.328600 0.000019 0.000005 12.175500 26.479800 -25.821900 22.291600 -0.000001 0.000005 55.430700 4.355320 18.930400 12.994500 -0.242716 -4.980390 89.005500 2.981300 -71.543300 -5.348130 -0.000001 -0.000004 -70.175600 9.180530 -19.449700 -24.328900 0.000322 -0.000009 -2.056330 -3.305470 -31.899600 -22.291500 -0.000108 -0.000004 44.577700 5.402470 -3.018160 -2.192480 -6.469440 -0.000000 -177.633000 3.664450 -26.609800 39.081100 -0.000007 -0.000012 0.006933 -0.039425 9.975090 40.985400 -0.000006 -0.000013 -7.911510 12.089200 -61.056900 11.754300 -0.000000 0.000003 0.002487 0.084447 -13.152000 -2.192510 6.469440 -0.000001 -178.592000 4.296240 -169.940000 -39.081100 -0.002282 -0.040193 -0.004431 0.026394 16.381600 -40.985400 0.000008 0.000006 2.818070 10.720500 -69.681200 -11.754300 -0.000006 -0.000006 -0.001179 -0.017922 -17.301900
0.000000 0.000000 0.000000 0.000000 0.000000 -0.000000 -205.631000 89.883900 230.233000 96.279900 83.391800 -10.114300 15.735700 0.000005 -0.000001 121.225000 86.783700 -120.909000 8.984550 -0.406207 -0.000000 -2.275790 3.306000 0.698164 16.377300 -0.000001 -0.000001 4.836150 2.611790 -1.128770 6.456720 -0.000001 -0.000000 3.969570 0.946573 -0.523817 12.994200 -0.242716 4.980390 -92.489900 5.944580 -67.224000 5.348090 -0.000007 -0.000001 -53.081300 -20.472600 18.454600 24.328600 0.000019 0.000005 11.678200 26.042300 -25.210400 22.291600 -0.000001 0.000005 55.183900 4.354570 18.942100 12.994500 -0.242716 -4.980390 88.974700 3.108840 -71.736900 -5.348130 -0.000001 -0.000004 -70.613900 9.652430 -18.035900 -24.328900 0.000322 -0.000009 -1.395810 -2.173250 -32.703600 -22.291500 -0.000108 -0.000004 44.652600 5.405600 -3.120300 -2.192480 -6.469440 -0.000000 -178.443000 3.883560 -28.933100 39.081100 -0.000007 -0.000012 -0.007189 0.030484 13.268700 40.985400 -0.000006 -0.000013 -6.912290 13.208500 -62.490800 11.754300 -0.000000 0.000003 0.002463 0.075512 -13.514300 -2.192510 6.469440 -0.000001 -179.383000 4.187980 -170.169000 -39.081100 -0.002282 -0.040193 -0.003802 0.020559 19.114800 -40.985400 0.000008 0.000006 2.195060 10.992700 -68.717400 -11.754300 -0.000006 -0.000006 -0.012050 -0.118368 -21.398500
0.000000 0.000000 0.000000 0.000000 0.000000 -0.000000 -201.589000 89.481800 230.100000 105.810000 83.460700 -20.757400 15.735700 0.000005 -0.000001 128.276000 87.293500 -128.371000 8.984550 -0.406207 -0.000000 -3.516870 3.360560 -0.085847 16.377300 -0.000001 -0.000001 4.849700 2.577870 -0.849634 6.456720 -0.000001 -0.000000 3.926280 0.836602 -0.276019 12.994200 -0.242716 4.980390 -92.680100 6.446070 -67.365900 5.348090 -0.000007 -0.000001 -52.293600 -20.885200 18.541200 24.328600 0.000019 0.000005 11.511600 25.858500 -25.030500 22.291600 -0.000001 0.000005 55.152900 4.354940 18.936300 12.994500 -0.242716 -4.980390 88.847100 3.543770 -71.965400 -5.348130 -0.000001 -0.000004 -70.844900 10.451800 -16.209200 -24.328900 0.000322 -0.000009 -0.524732 -0.830187 -32.227000 -22.291500 -0.000108 -0.000004 44.553300 5.410480 -3.281570 -2.192480 -6.469440 -0.000000 179.197000 4.449760 -33.270900 39.081100 -0.000007 -0.000012 0.023635 -0.057715 22.269800 40.985400 -0.000006 -0.000013 -1.976220 12.731900 -60.075900 11.754300 -0.000000 0.000003 0.002482 0.079834 -13.339000 -2.192510 6.469440 -0.000001 179.226000 3.928690 -171.031000 -39.081100 -0.002282 -0.040193 0.001988 0.003240 22.309200 -40.985400 0.000008 0.000006 1.590800 10.887500 -66.051200 -11.754300 -0.000006 -0.000006 -0.041071 -0.264350 -27.435200
